<svg width="32" height="32" viewBox="0 0 32 32" fill="none" xmlns="http://www.w3.org/2000/svg">
<path d="M12.75 8.75H19.25C21.4591 8.75 23.25 10.5409 23.25 12.75V19.25C23.25 21.4591 21.4591 23.25 19.25 23.25H12.75C10.5409 23.25 8.75 21.4591 8.75 19.25V12.75C8.75 10.5409 10.5409 8.75 12.75 8.75Z" stroke="#D9D9DD" stroke-width="1.2" stroke-linecap="round" stroke-linejoin="round"/>
<path d="M11.75 16.75C11.75 16.75 13 19.25 16 19.25C19 19.25 20.25 16.75 20.25 16.75" stroke="#D9D9DD" stroke-width="1.2" stroke-linecap="round" stroke-linejoin="round"/>
<path d="M18 15C18.5523 15 19 14.5523 19 14C19 13.4477 18.5523 13 18 13C17.4477 13 17 13.4477 17 14C17 14.5523 17.4477 15 18 15Z" fill="#D9D9DD"/>
<path d="M14 15C14.5523 15 15 14.5523 15 14C15 13.4477 14.5523 13 14 13C13.4477 13 13 13.4477 13 14C13 14.5523 13.4477 15 14 15Z" fill="#D9D9DD"/>
</svg>
